<svg xmlns="http://www.w3.org/2000/svg" viewBox="0 0 152.82 34.24"><defs><style>.cls-1{fill:#d51920;}</style></defs><title>mindx_1</title><g id="Camada_2" data-name="Camada 2"><g id="Camada_1-2" data-name="Camada 1"><path class="cls-1" d="M22.48,16.76A7,7,0,0,1,27.11,19a7.78,7.78,0,0,1,2,5.62,8.91,8.91,0,0,1-2.92,7q-2.91,2.61-8.38,2.61H1.29A1.29,1.29,0,0,1,0,33V1.29A1.29,1.29,0,0,1,1.29,0H17.73a10.8,10.8,0,0,1,7.54,2.56,8.69,8.69,0,0,1,2.84,6.79,7.14,7.14,0,0,1-1.79,5.11,6.17,6.17,0,0,1-3.84,2.1Zm-14-3.89a1.29,1.29,0,0,0,1.29,1.29h6.07a4.25,4.25,0,0,0,3-1.05,3.63,3.63,0,0,0,1.12-2.79,3.26,3.26,0,0,0-1.1-2.55,4,4,0,0,0-2.73-1H9.72A1.28,1.28,0,0,0,8.43,8.08ZM16.3,27.44a4.36,4.36,0,0,0,3.09-1,3.62,3.62,0,0,0,1.1-2.81,3.38,3.38,0,0,0-1.12-2.68,4.21,4.21,0,0,0-2.92-1H9.72a1.29,1.29,0,0,0-1.29,1.29v4.93a1.29,1.29,0,0,0,1.29,1.29Z"/><path class="cls-1" d="M99.65,8.77V32.82a1.42,1.42,0,0,1-1.42,1.42H92.68a1.42,1.42,0,0,1-1.42-1.42v-24a1.41,1.41,0,0,0-1.41-1.41H81.59a1.41,1.41,0,0,1-1.41-1.42V1.41A1.41,1.41,0,0,1,81.59,0h27.73a1.41,1.41,0,0,1,1.41,1.41V5.94a1.41,1.41,0,0,1-1.41,1.42h-8.26A1.41,1.41,0,0,0,99.65,8.77Z"/><path class="cls-1" d="M144.22,33.23,142.6,29a1.58,1.58,0,0,0-1.47-1H128.89a1.59,1.59,0,0,0-1.48,1l-1.62,4.21a1.58,1.58,0,0,1-1.48,1h-5.58a1.58,1.58,0,0,1-1.46-2.19L130.26,1a1.57,1.57,0,0,1,1.46-1h6.53a1.57,1.57,0,0,1,1.45,1l13,31.08a1.58,1.58,0,0,1-1.46,2.19H145.7A1.58,1.58,0,0,1,144.22,33.23ZM133.54,13.3l-2,5.3A1.59,1.59,0,0,0,133,20.75h4.12a1.58,1.58,0,0,0,1.47-2.16l-2.07-5.3A1.58,1.58,0,0,0,133.54,13.3Z"/><rect class="cls-1" x="42" width="26.68" height="7.26" rx="3.63"/><rect class="cls-1" x="42" y="13.49" width="26.68" height="7.26" rx="3.63"/><rect class="cls-1" x="42" y="26.98" width="26.68" height="7.26" rx="3.63"/></g></g></svg>